<?xml version="1.0" encoding="UTF-8"?>
<!-- Generator: visioncortex VTracer 0.6.5 -->
<svg version="1.1" xmlns="http://www.w3.org/2000/svg" width="512" height="512">
<path d="M0 0 C0.44 -0 0.44 -0 2.65 -0 C4.48 -0 6.32 -0 8.15 0 C10.93 0.01 13.71 0 16.49 -0 C18.29 -0 20.08 -0 21.88 0 C22.28 -0 22.28 -0 24.35 -0.01 C40.43 0.06 40.43 0.06 42.5 2.13 C43.97 2.42 45.45 2.65 46.94 2.86 C63.96 5.4 81.53 8.49 97.5 15.13 C97.5 15.79 97.5 16.45 97.5 17.13 C98.05 17.24 98.6 17.34 99.17 17.45 C104.8 18.59 109.84 20.27 115.07 22.63 C115.84 22.98 116.6 23.32 117.4 23.67 C124.92 27.15 131.8 31.45 138.72 35.99 C141.58 37.82 144.54 39.47 147.5 41.13 C147.5 41.79 147.5 42.45 147.5 43.13 C148.03 43.37 148.56 43.61 149.11 43.86 C152.19 45.5 155.02 47.45 157.88 49.45 C158.43 49.82 158.98 50.2 159.55 50.59 C163.38 53.25 167.04 56.01 170.5 59.13 C170.5 59.79 170.5 60.45 170.5 61.13 C170.78 61.26 170.78 61.26 172.2 61.88 C179.88 66.07 185.95 73.49 191.5 80.13 C192.39 81.16 193.28 82.18 194.17 83.21 C198.82 88.59 203.28 93.91 207.08 99.95 C208.42 102 209.84 103.94 211.34 105.88 C219.8 117.1 226.33 129.09 231.51 142.14 C232.98 145.81 234.21 148.76 236.7 151.86 C238.93 154.67 238.97 156.61 239.5 160.13 C240 162.11 240.52 164.09 241.06 166.05 C241.37 167.16 241.67 168.27 241.98 169.41 C242.62 171.71 243.25 174.01 243.89 176.3 C248.67 193.76 248.67 193.76 248.5 201.13 C249.82 201.13 251.14 201.13 252.5 201.13 C256.51 213.15 254.63 228.58 254.57 241.13 C254.56 242.99 254.56 244.84 254.55 246.7 C254.54 251.17 254.52 255.65 254.5 260.13 C254.81 260.16 254.81 260.16 256.38 260.27 C259.2 260.48 262.01 260.71 264.82 260.95 C265.3 260.98 265.3 260.98 267.78 261.16 C268.24 261.2 268.24 261.2 270.62 261.4 C271.48 261.47 272.35 261.54 273.24 261.61 C275.99 262.24 276.79 262.91 278.5 265.13 C278.89 267.47 278.89 267.47 278.91 270.28 C278.93 271.35 278.94 272.42 278.95 273.51 C278.96 274.1 278.96 274.1 278.96 277.06 C278.97 278.29 278.98 279.53 278.99 280.8 C279.02 284.18 279.03 287.57 279.04 290.96 C279.04 293.08 279.05 295.2 279.06 297.33 C279.09 304.75 279.11 312.17 279.11 319.59 C279.12 326.48 279.16 333.36 279.22 340.25 C279.26 346.18 279.28 352.11 279.28 358.04 C279.29 361.58 279.3 365.11 279.34 368.64 C279.5 383.88 279.62 396.83 271.5 410.13 C270.91 411.13 270.32 412.13 269.71 413.16 C268.41 415.28 267.17 417.28 265.5 419.13 C264.84 419.13 264.18 419.13 263.5 419.13 C263.38 419.41 263.38 419.41 262.75 420.82 C260.14 425.65 256.37 429.29 252.5 433.13 C251.57 434.09 250.64 435.04 249.71 436 C235.09 450.94 235.09 450.94 228.5 453.13 C228.17 454.12 227.84 455.11 227.5 456.13 C226.07 457.42 226.07 457.42 224.21 458.7 C223.53 459.18 222.84 459.66 222.13 460.16 C221.76 460.41 221.76 460.41 219.88 461.7 C219.11 462.23 218.35 462.76 217.56 463.3 C215.21 464.92 212.86 466.53 210.5 468.13 C209.83 468.59 209.15 469.05 208.46 469.52 C204.16 472.43 199.84 475.29 195.5 478.13 C194.92 478.52 194.33 478.91 193.72 479.31 C185.17 484.93 176.48 490.22 167.5 495.13 C166.46 495.71 165.43 496.28 164.36 496.87 C160.13 498.74 157.98 498.07 153.5 497.13 C151 496.07 151 496.07 149.5 495.13 C149.5 494.47 149.5 493.81 149.5 493.13 C148.69 492.9 147.88 492.67 147.05 492.43 C142.69 490.83 138.8 488.72 134.75 486.45 C133.95 486 133.15 485.55 132.33 485.09 C127.26 482.22 122.44 479.18 117.75 475.73 C114.51 473.43 111.08 471.46 107.63 469.49 C105.61 468.2 104.16 466.85 102.5 465.13 C101.42 465.72 100.35 466.31 99.23 466.91 C93.96 469.54 88.49 471.09 82.82 472.63 C81.73 472.93 80.64 473.24 79.51 473.55 C70.01 476.12 60.46 478.04 50.77 479.71 C48.52 480.13 46.32 480.64 44.1 481.18 C34.13 483.41 23.81 483.39 13.63 483.69 C11.35 483.76 9.07 483.84 6.79 483.91 C5.33 483.96 3.88 484 2.43 484.05 C1.78 484.07 1.78 484.07 -1.53 484.17 C-4.5 484.13 -4.5 484.13 -5.5 483.13 C-8.41 482.8 -11.32 482.52 -14.25 482.26 C-22.22 481.47 -29.73 480.11 -37.5 478.13 C-39.45 477.68 -41.4 477.23 -43.36 476.78 C-65.93 471.59 -65.93 471.59 -76.5 467.13 C-77.47 466.73 -78.44 466.32 -79.44 465.91 C-92.82 460.28 -105.79 454.52 -117.77 446.28 C-120.44 444.5 -123.22 442.89 -125.99 441.26 C-126.48 440.89 -126.98 440.52 -127.5 440.13 C-127.5 439.47 -127.5 438.81 -127.5 438.13 C-127.75 438.01 -127.75 438.01 -129.06 437.38 C-132.27 435.74 -135.37 433.94 -138.5 432.13 C-138.5 431.47 -138.5 430.81 -138.5 430.13 C-139.24 429.88 -139.99 429.62 -140.76 429.36 C-143.67 428.06 -145.15 426.76 -147.31 424.45 C-149.96 421.68 -152.65 419.06 -155.56 416.57 C-165.44 408.04 -173.49 398.32 -181.21 387.83 C-182.15 386.59 -183.11 385.37 -184.09 384.16 C-188.83 378.26 -192.72 372.06 -196.5 365.51 C-197.11 364.45 -197.72 363.4 -198.34 362.31 C-213.5 335.86 -213.5 335.86 -213.5 327.13 C-214.16 327.13 -214.82 327.13 -215.5 327.13 C-221.3 309.61 -225.95 291.82 -228.07 273.44 C-228.5 270.13 -228.5 270.13 -229.5 269.13 C-230.85 260.79 -230.65 252.24 -230.63 243.81 C-230.62 241.64 -230.63 239.46 -230.63 237.29 C-230.64 221.2 -230.64 221.2 -229.5 214.13 C-229.17 213.8 -228.84 213.47 -228.5 213.13 C-228.2 211.57 -227.95 209.99 -227.73 208.41 C-226.1 197.2 -224.23 186.14 -221.5 175.13 C-221.26 174.16 -221.02 173.19 -220.78 172.19 C-219.46 167.04 -217.83 162.3 -215.58 157.49 C-214.35 154.82 -213.26 152.12 -212.16 149.39 C-204.31 129.91 -204.31 129.91 -199.06 122.41 C-197.38 119.97 -196.04 117.46 -194.68 114.82 C-191.5 108.83 -187.57 103.46 -183.57 98 C-181.5 95.13 -181.5 95.13 -180.5 93.13 C-179.84 93.13 -179.18 93.13 -178.5 93.13 C-177.84 91.48 -177.18 89.83 -176.5 88.13 C-175.84 88.13 -175.18 88.13 -174.5 88.13 C-174.5 87.47 -174.5 86.81 -174.5 86.13 C-173.19 84.77 -171.85 83.45 -170.5 82.13 C-169.55 81.03 -168.62 79.93 -167.68 78.82 C-163.86 74.42 -159.79 70.27 -155.68 66.13 C-155.35 65.79 -155.35 65.79 -153.65 64.06 C-153.02 63.42 -152.38 62.79 -151.73 62.13 C-151.15 61.56 -150.58 60.98 -149.99 60.38 C-148.5 59.13 -148.5 59.13 -146.5 59.13 C-146.17 58.14 -145.84 57.15 -145.5 56.13 C-143.96 54.8 -143.96 54.8 -142 53.47 C-141.3 52.99 -140.59 52.5 -139.87 52.01 C-139.13 51.51 -138.38 51.02 -137.62 50.51 C-136.89 50.01 -136.15 49.5 -135.4 48.98 C-129.93 45.28 -129.93 45.28 -126.5 44.13 C-126.5 43.47 -126.5 42.81 -126.5 42.13 C-124.91 40.93 -124.91 40.93 -122.68 39.59 C-121.86 39.1 -121.04 38.61 -120.2 38.1 C-119.31 37.57 -118.41 37.05 -117.5 36.51 C-116.59 35.97 -115.68 35.43 -114.75 34.88 C-84.49 17.13 -84.49 17.13 -75.5 17.13 C-75.5 16.47 -75.5 15.81 -75.5 15.13 C-60.54 10.22 -45.65 6.5 -30.18 3.65 C-27.71 3.17 -25.28 2.63 -22.83 2.06 C-15.27 0.35 -7.74 -0.02 0 0 Z " fill="#A3E1F2" transform="translate(231.49609375,8.8671875)"/>
<path d="M0 0 C2.87 1.17 3.81 2.1 5.86 4.33 C9.76 8.32 14.03 11.11 18.81 13.94 C19.59 14.41 20.37 14.89 21.17 15.38 C25.26 17.85 29.1 19.84 33.75 21.12 C33.75 21.78 33.75 22.44 33.75 23.12 C34.88 23.48 36.02 23.83 37.19 24.19 C41.9 25.76 46.48 27.6 51.06 29.5 C51.81 29.81 52.55 30.11 53.32 30.43 C56.51 31.76 59.69 33.1 62.85 34.52 C75.85 40.29 89.53 43.65 103.75 44.12 C105.96 44.23 108.17 44.36 110.38 44.5 C111.34 44.55 112.3 44.6 113.29 44.65 C116.21 45.21 116.96 45.79 118.75 48.12 C119.14 50.46 119.14 50.46 119.16 53.28 C119.17 54.34 119.19 55.41 119.2 56.51 C119.2 57.68 119.2 58.85 119.2 60.05 C119.21 60.67 119.21 60.67 119.24 63.79 C119.26 67.18 119.28 70.56 119.28 73.95 C119.29 76.07 119.3 78.2 119.31 80.32 C119.34 87.74 119.36 95.16 119.36 102.59 C119.36 109.47 119.4 116.36 119.46 123.24 C119.51 129.17 119.53 135.1 119.53 141.04 C119.53 144.57 119.54 148.1 119.58 151.63 C119.74 166.88 119.87 179.82 111.75 193.12 C111.16 194.12 110.56 195.12 109.95 196.15 C108.65 198.28 107.42 200.27 105.75 202.12 C105.09 202.12 104.43 202.12 103.75 202.12 C103.5 202.68 103.25 203.24 103 203.81 C100.39 208.64 96.61 212.28 92.75 216.12 C91.82 217.08 90.88 218.04 89.95 218.99 C75.33 233.93 75.33 233.93 68.75 236.12 C68.42 237.12 68.09 238.11 67.75 239.12 C66.31 240.41 66.31 240.41 64.46 241.69 C63.77 242.17 63.09 242.65 62.38 243.15 C62.01 243.4 62.01 243.4 60.12 244.69 C59.36 245.22 58.59 245.75 57.81 246.3 C55.46 247.92 53.11 249.52 50.75 251.12 C50.41 251.35 50.41 251.35 48.7 252.52 C44.41 255.42 40.09 258.28 35.75 261.12 C35.16 261.51 34.57 261.9 33.97 262.3 C25.42 267.92 16.73 273.21 7.75 278.12 C6.71 278.7 5.67 279.27 4.6 279.86 C0.38 281.73 -1.77 281.06 -6.25 280.12 C-8.75 279.06 -8.75 279.06 -10.25 278.12 C-10.25 277.46 -10.25 276.81 -10.25 276.12 C-11.06 275.89 -11.87 275.66 -12.7 275.42 C-17.07 273.83 -20.96 271.71 -25 269.44 C-25.8 268.99 -26.6 268.54 -27.42 268.08 C-32.49 265.22 -37.31 262.17 -42 258.71 C-45.24 256.43 -48.66 254.51 -52.12 252.58 C-54.44 251 -55.77 249.5 -57.25 247.12 C-57.25 246.47 -57.25 245.81 -57.25 245.12 C-57.79 244.88 -58.33 244.64 -58.89 244.38 C-66.6 240.27 -73.45 234.24 -79.45 227.96 C-81.16 226.22 -82.93 224.67 -84.81 223.12 C-88.05 220.41 -90.77 217.41 -93.5 214.18 C-94.64 212.84 -95.81 211.52 -97 210.22 C-109.25 196.85 -109.25 196.85 -109.25 191.12 C-109.91 191.12 -110.57 191.12 -111.25 191.12 C-111.86 189.69 -112.46 188.25 -113.06 186.81 C-113.4 186.01 -113.74 185.21 -114.08 184.39 C-117.3 175.39 -118.69 167.36 -118.61 157.8 C-118.61 156.62 -118.61 155.44 -118.61 154.23 C-118.62 150.37 -118.6 146.51 -118.58 142.65 C-118.57 139.96 -118.57 137.27 -118.57 134.58 C-118.57 128.95 -118.55 123.33 -118.53 117.71 C-118.5 110.49 -118.49 103.27 -118.49 96.05 C-118.48 90.5 -118.47 84.95 -118.46 79.4 C-118.46 76.74 -118.45 74.07 -118.45 71.41 C-118.44 67.7 -118.43 63.99 -118.41 60.28 C-118.41 59.18 -118.41 58.07 -118.41 56.93 C-118.4 55.93 -118.4 54.92 -118.39 53.89 C-118.39 53.01 -118.38 52.13 -118.38 51.23 C-118.25 49.12 -118.25 49.12 -117.25 47.12 C-115.18 46.77 -113.09 46.52 -111 46.31 C-101.71 45.27 -92.77 42.98 -83.72 40.73 C-79.91 39.8 -76.08 38.96 -72.25 38.12 C-72.25 37.47 -72.25 36.81 -72.25 36.12 C-71.73 35.95 -71.21 35.77 -70.67 35.59 C-54.69 30.19 -39.68 24.11 -24.81 16.12 C-23.9 15.64 -22.99 15.15 -22.05 14.65 C-15.41 11.01 -8.88 6.96 -3.64 1.43 C-2.25 0.12 -2.25 0.12 0 0 Z " fill="#3D3D3C" transform="translate(391.25,225.875)"/>
<path d="M0 0 C0.33 0.17 0.33 0.17 2 1 C1.47 1.69 0.94 2.38 0.39 3.09 C-5.93 11.5 -10.78 18.23 -10 29 C-9.44 29.27 -8.87 29.55 -8.29 29.83 C-0.65 33.73 6.53 38.36 13 44 C13.57 44.39 14.14 44.77 14.73 45.17 C20.22 49.49 21.12 54.56 22.01 61.16 C22.3 63.57 22.56 65.97 22.81 68.38 C23.01 70.05 23.21 71.72 23.42 73.39 C25.16 88.07 26.88 102.9 27.09 117.69 C27.31 129.66 31.31 136.26 39.38 144.88 C43.96 149.24 49.41 154 56 154 C55.57 148.74 53.55 144.59 51.34 139.88 C45.36 127.06 45.36 127.06 46 121 C55.38 122.04 59.51 126.45 65.3 133.61 C67.49 136.37 69.63 139.16 71.74 141.98 C74 145 74 145 76.07 147.29 C78.32 150.45 78.7 152.47 79.12 156.3 C79.2 156.9 79.2 156.9 79.58 159.95 C79.72 161.21 79.86 162.46 80 163.75 C80.95 172.2 81.96 179.46 86 187 C86.37 187.99 86.74 188.98 87.12 190 C90.3 193.39 94.55 192.8 99 193.06 C106.39 193.79 111.46 194.76 116.31 200.62 C117.95 202.71 119.47 204.83 121 207 C122.5 208.75 124.02 210.48 125.56 212.19 C126.18 212.9 126.8 213.62 127.44 214.36 C129 216 129 216 131 217 C131 232.51 131 248.02 131 264 C131.99 264.33 132.98 264.66 134 265 C135.22 266.54 135.22 266.54 136.5 268.62 C138.47 271.75 140.52 274.7 142.84 277.58 C143.34 278.22 143.83 278.85 144.35 279.51 C145.35 280.77 146.36 282.01 147.39 283.24 C150.1 286.73 151.29 289.18 151.19 293.64 C151.18 294.08 151.18 294.08 151.13 296.31 C150.93 300.47 150.6 304.6 150.2 308.75 C150.11 309.65 150.03 310.55 149.94 311.47 C149.76 313.36 149.58 315.25 149.4 317.14 C149.13 319.96 148.86 322.79 148.6 325.62 C147.77 334.42 146.9 343.2 145.93 351.98 C145.85 352.71 145.77 353.43 145.69 354.17 C145.24 358.22 144.67 362.23 144 366.25 C142.45 375.76 141.8 385.4 141 395 C141.61 395.3 142.23 395.6 142.86 395.9 C145.32 397.16 147.42 398.65 149.62 400.31 C150.4 400.89 151.18 401.46 151.98 402.05 C154.25 404.24 154.92 406.07 156 409 C148.22 409.28 141.11 408.56 133.5 406.94 C132.42 406.71 131.34 406.48 130.23 406.25 C127.95 405.76 125.68 405.26 123.41 404.76 C121.19 404.27 118.98 403.78 116.76 403.32 C90.71 397.77 64.92 387.26 43 372 C40.85 370.7 38.69 369.41 36.53 368.14 C36.02 367.76 35.52 367.39 35 367 C35 366.34 35 365.68 35 365 C34.74 364.88 34.74 364.88 33.44 364.25 C30.23 362.6 27.12 360.8 24 359 C24 358.34 24 357.68 24 357 C23.25 356.75 22.51 356.49 21.74 356.23 C18.83 354.92 17.35 353.63 15.19 351.31 C12.53 348.55 9.85 345.93 6.94 343.44 C-2.94 334.91 -11 325.19 -18.72 314.69 C-19.66 313.45 -20.62 312.23 -21.59 311.03 C-26.33 305.13 -30.23 298.93 -34 292.38 C-34.61 291.32 -35.22 290.27 -35.85 289.18 C-51 262.73 -51 262.73 -51 254 C-51.66 254 -52.32 254 -53 254 C-58.81 236.48 -63.46 218.68 -65.57 200.31 C-66 197 -66 197 -67 196 C-68.35 187.66 -68.16 179.1 -68.13 170.68 C-68.13 168.5 -68.13 166.33 -68.14 164.16 C-68.15 148.06 -68.15 148.06 -67 141 C-66.67 140.67 -66.34 140.34 -66 140 C-65.7 138.43 -65.46 136.86 -65.24 135.28 C-63.6 124.06 -61.73 113 -59 102 C-58.76 101.03 -58.53 100.06 -58.28 99.06 C-56.96 93.91 -55.34 89.17 -53.08 84.36 C-51.86 81.69 -50.76 78.98 -49.67 76.26 C-41.81 56.78 -41.81 56.78 -36.57 49.28 C-34.89 46.83 -33.55 44.33 -32.19 41.69 C-29 35.7 -25.08 30.33 -21.07 24.87 C-19 22 -19 22 -18 20 C-17.34 20 -16.68 20 -16 20 C-15.34 18.35 -14.68 16.7 -14 15 C-13.34 15 -12.68 15 -12 15 C-12 14.34 -12 13.68 -12 13 C-10.69 11.64 -9.35 10.32 -8 9 C-6.14 6.92 -4.31 4.81 -2.49 2.71 C-1.68 1.78 -0.87 0.87 0 0 Z " fill="#A3E1F2" transform="translate(69,82)"/>
<path d="M0 0 C1.53 1.55 3.01 3.16 4.44 4.81 C5.95 6.55 7.47 8.28 9 10 C9.41 10.51 9.83 11.02 10.25 11.55 C13.11 14.83 14.47 15.91 18.9 16.68 C20.37 16.68 21.83 16.64 23.29 16.58 C24.08 16.56 24.87 16.55 25.68 16.53 C27.34 16.49 29 16.43 30.66 16.35 C33.16 16.25 35.67 16.21 38.17 16.18 C46.77 15.95 53.42 15.31 60.78 10.39 C64.28 8.2 67.9 7.23 72 8 C76.05 11.53 77.63 14.77 79 20 C79.66 20 80.32 20 81 20 C81.31 24.18 80.49 26.51 78.41 30.12 C77.87 31.08 77.34 32.03 76.78 33.02 C76.22 34 75.65 34.99 75.06 36 C73.94 37.95 72.83 39.91 71.72 41.88 C71.23 42.74 70.73 43.6 70.22 44.49 C68.97 47.06 68.3 49.16 68 52 C71.85 60.18 78.57 68.81 86 74 C89.74 75.02 93.14 75.25 97 75 C97 74.34 97 73.68 97 73 C98.37 72.12 99.73 71.25 101.11 70.39 C103.41 68.7 105.23 66.76 107.19 64.69 C113.48 58.23 121.63 52.01 130.75 50.56 C139.69 51.77 147.01 58.65 153 65 C154.24 68.71 153.57 69.68 152.06 73.19 C151.87 73.64 151.87 73.64 150.91 75.92 C150.61 76.61 150.31 77.29 150 78 C149.34 78 148.68 78 148 78 C147.81 78.89 147.63 79.77 147.44 80.69 C145.55 85.04 143.17 86.85 139 89 C137.49 89.42 135.96 89.82 134.44 90.19 C130.45 91.4 129.13 92.81 127.12 96.43 C126.62 97.33 126.11 98.23 125.58 99.15 C125.06 100.09 124.54 101.03 124 102 C122.94 103.8 121.88 105.6 120.82 107.4 C120.28 108.31 119.75 109.21 119.2 110.14 C107.39 130.23 107.39 130.23 101.69 138.25 C97.82 144.56 97.66 151.06 97.79 158.21 C97.71 161.12 97.55 163.36 95.62 165.6 C93.95 166.99 93.95 166.99 91 169 C90.45 168.58 89.89 168.16 89.32 167.72 C88.96 167.45 88.96 167.45 87.12 166.06 C86.41 165.52 85.69 164.97 84.95 164.41 C83 163 83 163 81 162 C81 161.34 81 160.68 81 160 C74.83 157.76 68.53 157.14 62 158 C59.66 159.28 59.66 159.28 58 161 C57.62 164.98 57.38 167.62 59.02 171.27 C60.29 174.8 60.18 178.07 60.06 181.75 C60 184.17 59.98 186.58 60 189 C61 190 61 190 64.31 190.12 C68 190 68 190 70 189.5 C73.23 188.69 75.67 188.6 79 189 C83.9 191.94 87.51 196.61 91.17 200.91 C94.27 204.45 97.64 207.71 101 211 C101.46 211.49 101.92 211.98 102.39 212.48 C112.11 221.63 126.37 222.88 138.95 222.94 C143.1 223.07 146.99 224.01 151 225 C151 225.66 151 226.32 151 227 C155.29 227.99 159.58 228.98 164 230 C164.01 231.25 164.01 232.51 164.02 233.8 C164.08 245.64 164.15 257.48 164.24 269.33 C164.28 275.42 164.32 281.5 164.35 287.59 C164.37 293.47 164.41 299.35 164.46 305.23 C164.48 307.47 164.49 309.71 164.5 311.95 C164.51 315.09 164.54 318.24 164.57 321.39 C164.57 322.3 164.56 323.22 164.56 324.16 C164.69 333.19 166.89 340.98 171 349 C171 350.32 171 351.64 171 353 C171.66 353 172.32 353 173 353 C174.43 355.1 175.76 357.2 177.06 359.38 C181.11 365.9 185.71 371.42 191 377 C192.36 378.56 193.71 380.12 195.06 381.69 C198.75 385.84 202.75 389.44 207 393 C207.55 393.49 208.1 393.98 208.67 394.48 C213.13 398.44 217.92 401.81 222.84 405.17 C223.2 405.47 223.2 405.47 225 407 C225 407.99 225 408.98 225 410 C218.63 413.47 212.3 415.59 205.31 417.5 C204.22 417.8 203.13 418.1 202.01 418.41 C192.51 420.98 182.96 422.91 173.27 424.58 C171.02 425 168.81 425.51 166.59 426.04 C161.42 427.21 156.28 427.64 151 428 C149.72 428.09 148.44 428.19 147.11 428.28 C143.53 428.53 139.94 428.72 136.35 428.89 C134.85 428.96 133.36 429.05 131.87 429.16 C119.33 430.01 119.33 430.01 116.11 427.56 C114.89 425.72 114.89 425.72 113.95 423.77 C112.38 420.84 109.49 419.94 106.62 418.44 C101.4 414.59 101.4 414.59 100.49 410.94 C99.96 404.26 101.07 397.61 102 391 C102.29 388.73 102.58 386.46 102.86 384.18 C103.34 380.45 103.83 376.71 104.33 372.98 C105.95 361.08 107.14 349.14 108.25 337.19 C108.34 336.25 108.43 335.32 108.52 334.36 C108.77 331.67 109.02 328.98 109.27 326.29 C109.3 325.9 109.3 325.9 109.49 323.9 C109.85 319.83 110.09 315.76 110.2 311.68 C110.22 310.89 110.24 310.09 110.26 309.27 C109.76 304.97 107.04 302.07 104.31 298.88 C103.24 297.56 102.18 296.25 101.11 294.93 C100.59 294.29 100.07 293.65 99.53 293 C97.48 290.32 95.76 287.48 94.07 284.57 C93 283 93 283 91 282 C91 266.49 91 250.98 91 235 C89.68 234.34 88.36 233.68 87 233 C85.52 231.67 85.52 231.67 84.16 230.17 C83.65 229.62 83.15 229.07 82.63 228.5 C82.11 227.92 81.59 227.34 81.06 226.75 C80.55 226.19 80.04 225.63 79.51 225.05 C79 224.49 78.5 223.93 77.97 223.36 C77.46 222.8 76.96 222.25 76.43 221.68 C75 220 75 220 73.88 218.29 C72.17 215.77 70.68 214.19 67.72 213.38 C64.04 212.9 60.37 212.67 56.66 212.48 C49.87 211.86 49.87 211.86 47.34 209.36 C46.01 207.3 44.99 205.25 44 203 C43.43 201.96 42.87 200.92 42.28 199.85 C40.5 195.46 40.33 190.81 39.87 186.14 C38.58 173.38 36.88 164.44 27.5 155.48 C25.93 153.93 24.55 152.31 23.15 150.61 C18.03 144.46 14.01 140.58 6 139 C7.7 147.06 10.95 154.33 14.25 161.85 C14.62 162.73 14.99 163.6 15.38 164.5 C15.54 164.89 15.54 164.89 16.4 166.84 C17.08 169.3 16.83 170.62 16 173 C5.72 171.42 -2.42 162.89 -8.56 154.99 C-13.59 147.69 -13.93 141.12 -14.12 132.44 C-14.24 129.6 -14.37 126.75 -14.51 123.91 C-14.54 123.19 -14.57 122.46 -14.61 121.71 C-15.02 113.53 -15.97 105.43 -17 97.31 C-17.08 96.63 -17.17 95.96 -17.25 95.26 C-17.65 92.05 -18.07 88.84 -18.51 85.63 C-18.84 83.2 -19.14 80.77 -19.43 78.33 C-19.58 77.18 -19.72 76.03 -19.88 74.85 C-20 73.84 -20.12 72.83 -20.24 71.79 C-22.18 64.67 -28.93 60.49 -34.94 56.88 C-35.76 56.41 -36.58 55.95 -37.43 55.48 C-49.12 48.76 -49.12 48.76 -51 45 C-51.38 37.35 -48.11 32.17 -44 26 C-43.16 24.61 -42.33 23.21 -41.5 21.81 C-37.36 15.24 -31.92 9.02 -26 4 C-25.34 4 -24.68 4 -24 4 C-23.67 3.01 -23.34 2.02 -23 1 C-15.57 -3.39 -7.4 -5.17 0 0 Z " fill="#30AFCB" transform="translate(109,64)"/>
<path d="M0 0 C0.85 -0.01 1.7 -0.01 2.57 -0.02 C4.37 -0.03 6.17 -0.03 7.97 -0.04 C10.71 -0.05 13.45 -0.08 16.19 -0.11 C17.94 -0.12 19.69 -0.12 21.44 -0.12 C22.25 -0.14 23.07 -0.15 23.9 -0.16 C29.22 -0.14 32.87 0.8 37.62 3.2 C37.62 3.86 37.62 4.52 37.62 5.2 C37.94 5.26 37.94 5.26 39.55 5.58 C40.24 5.78 40.92 5.99 41.62 6.2 C41.78 6.53 41.78 6.53 42.62 8.2 C43.38 8.64 44.14 9.07 44.93 9.52 C48.41 11.7 50.78 14.19 52.37 18.02 C53.14 24.79 52.69 30.05 49.62 36.2 C48.96 36.2 48.3 36.2 47.62 36.2 C47.59 36.9 47.57 37.6 47.54 38.32 C46.17 42.6 43.28 44.56 39.87 47.33 C39.25 47.85 38.62 48.38 37.98 48.92 C34.67 51.68 31.35 54.03 27.62 56.2 C26.14 57.35 24.68 58.52 23.24 59.7 C20.42 61.95 18.39 63.29 14.99 64.64 C10.93 66.52 9.07 68.85 6.39 72.36 C4.28 74.55 2.45 75.13 -0.38 76.2 C-5.23 79.36 -9.71 82.53 -11.17 88.32 C-11.38 95.99 -11.38 95.99 -8.53 99.45 C-5.99 101.52 -3.36 102.85 -0.38 104.2 C-0.38 104.86 -0.38 105.52 -0.38 106.2 C1.56 106.12 3.49 106.01 5.43 105.89 C6.51 105.83 7.59 105.77 8.7 105.71 C11.62 105.2 11.62 105.2 13.45 104.05 C15.12 101.4 15.2 99 15.49 95.89 C16.26 90.05 17.18 87.08 21.62 83.2 C22.28 83.2 22.94 83.2 23.62 83.2 C23.62 82.54 23.62 81.88 23.62 81.2 C30.96 76.62 42.46 77.53 50.62 79.2 C50.62 79.86 50.62 80.52 50.62 81.2 C51.24 81.47 51.85 81.74 52.49 82.02 C54.62 83.2 54.62 83.2 56.62 86.2 C58.12 95.98 52.33 103.89 46.94 111.45 C44.18 115.11 41.03 118.18 37.62 121.2 C36.69 122.18 35.78 123.16 34.87 124.14 C32.67 126.15 31.54 126.88 28.62 127.2 C28.62 127.86 28.62 128.52 28.62 129.2 C27.69 129.34 26.76 129.47 25.81 129.61 C25.21 129.69 25.21 129.69 22.18 130.14 C20.98 130.31 19.79 130.49 18.56 130.67 C15.62 131.2 15.62 131.2 14.62 132.2 C5.16 132.96 -3.78 132.57 -12.95 130.02 C-13.66 129.82 -14.37 129.62 -15.1 129.42 C-24.4 126.6 -31.51 121.72 -38.45 115.02 C-38.79 114.68 -38.79 114.68 -40.55 113 C-48.53 105.27 -54.59 97.33 -59.94 87.57 C-61.38 85.2 -61.38 85.2 -63.38 84.2 C-68.87 69.19 -70.02 50.91 -64.07 35.89 C-62.16 32.85 -60.01 30.63 -57.38 28.2 C-55.03 26.02 -54.44 25.36 -53.38 22.2 C-49.92 19.26 -46.13 16.76 -42.38 14.2 C-41.59 13.64 -40.81 13.07 -39.99 12.49 C-32.72 7.62 -24.83 5.98 -16.38 4.2 C-16.38 3.54 -16.38 2.88 -16.38 2.2 C-15.25 2.06 -14.11 1.91 -12.95 1.77 C-1.82 0.01 -1.82 0.01 0 0 Z " fill="#FDF401" transform="translate(388.3828125,343.796875)"/>
<path d="M0 0 C6.25 3.64 11.74 8.37 16.66 13.65 C18.43 15.43 19.55 15.98 22.06 16.11 C22.48 16.11 22.48 16.11 24.57 16.1 C25.02 16.1 25.02 16.1 27.29 16.09 C28.22 16.08 29.16 16.07 30.12 16.06 C30.6 16.06 30.6 16.06 32.99 16.05 C35.33 16.04 37.66 16.02 40 16 C40 15.34 40 14.68 40 14 C41.32 14 42.64 14 44 14 C48.06 26.17 46.12 41.8 46.06 54.5 C46.06 56.4 46.05 58.3 46.05 60.21 C46.04 64.8 46.02 69.4 46 74 C40.78 73.38 35.85 72.6 30.75 71.25 C29.57 70.95 28.39 70.64 27.17 70.33 C21.61 68.68 16.33 66.28 11 64 C8.88 63.12 6.77 62.24 4.65 61.36 C2.56 60.49 0.47 59.62 -1.62 58.75 C-2.7 58.3 -3.77 57.86 -4.88 57.4 C-5.9 56.97 -6.92 56.55 -7.98 56.11 C-8.9 55.73 -9.81 55.35 -10.76 54.95 C-12.19 54.34 -13.61 53.7 -15 53 C-15 52.34 -15 51.68 -15 51 C-16.01 50.74 -17.03 50.49 -18.07 50.22 C-30.52 46.65 -40.07 37.93 -49 29 C-48.65 28.48 -48.65 28.48 -46.88 25.86 C-45.96 24.49 -45.04 23.12 -44.12 21.75 C-43.66 21.07 -43.2 20.39 -42.73 19.68 C-42.29 19.02 -41.84 18.36 -41.38 17.67 C-40.97 17.06 -40.57 16.46 -40.15 15.83 C-39 14 -39 14 -38.04 11.83 C-37 10 -37 10 -34 9 C-32.21 8.97 -30.42 8.95 -28.62 8.94 C-21.64 8.45 -17.36 5.64 -11.71 1.81 C-7.4 -1.07 -4.96 -1.24 0 0 Z " fill="#30AEC9" transform="translate(440,196)"/>
<path d="M0 0 C2 1.75 2 1.75 4 4 C4 5.32 4 6.64 4 8 C4.66 8 5.32 8 6 8 C7.43 10.1 8.76 12.2 10.06 14.38 C14.11 20.9 18.71 26.42 24 32 C25.36 33.56 26.71 35.12 28.06 36.69 C31.75 40.84 35.75 44.44 40 48 C40.55 48.49 41.1 48.98 41.67 49.48 C46.13 53.44 50.92 56.81 55.84 60.17 C56.55 60.77 57.27 61.38 58 62 C58 62.99 58 63.98 58 65 C51.63 68.47 45.3 70.59 38.31 72.5 C37.22 72.8 36.13 73.1 35.01 73.41 C25.51 75.98 15.96 77.91 6.27 79.58 C4.02 80 1.81 80.51 -0.41 81.04 C-10.06 83.21 -19.84 83.13 -29.69 83.06 C-30.88 83.06 -32.07 83.05 -33.29 83.05 C-36.2 83.04 -39.1 83.02 -42 83 C-42 82.34 -42 81.68 -42 81 C-38.63 79.5 -36.8 79 -33 79 C-33.29 78.32 -33.58 77.64 -33.88 76.95 C-34.25 76.01 -34.62 75.08 -35 74.12 C-35.37 73.22 -35.74 72.32 -36.12 71.38 C-37.74 65.13 -38.21 59.45 -34.9 53.71 C-33.94 52.25 -32.95 50.81 -31.94 49.38 C-30.83 47.72 -29.73 46.07 -28.63 44.42 C-28.04 43.55 -27.46 42.68 -26.85 41.78 C-23.55 36.82 -20.45 31.75 -17.31 26.69 C-1.78 1.78 -1.78 1.78 0 0 Z " fill="#A2E0F1" transform="translate(276,409)"/>
<path d="M0 0 C1.22 -0.04 2.45 -0.08 3.71 -0.12 C12.6 -0.2 12.6 -0.2 15.25 1.86 C16.37 3.38 17.44 4.94 18.5 6.5 C21.44 7.02 21.44 7.02 24.5 6.88 C29.98 7.04 29.98 7.04 32.43 9.18 C35.64 14.11 35.64 14.11 35.3 17.59 C33.92 20.89 31.3 22.36 28.5 24.5 C28.91 27.96 29.63 29.68 31.62 32.62 C32.24 33.57 32.86 34.52 33.5 35.5 C32.22 39.34 31.06 39.45 27.56 41.31 C21.71 44.82 18.57 48.99 15.2 54.79 C12.42 59.25 12.42 59.25 9.5 60.04 C7.51 60.23 5.5 60.37 3.5 60.5 C0.61 63.85 -1.03 67.35 -2.5 71.5 C-8.27 71.8 -12.48 71.72 -17.5 68.5 C-23.77 60.82 -26.5 46.32 -26.5 36.5 C-27.14 36.33 -27.79 36.16 -28.45 35.98 C-49.59 30.32 -49.59 30.32 -59.5 25.5 C-58.17 21.5 -56.57 21.27 -52.88 19.38 C-47.59 16.42 -44.36 13.52 -41 8.52 C-39.26 6.18 -38.07 4.9 -35.5 3.5 C-32.63 3.18 -29.93 2.99 -27.06 2.94 C-25.56 2.9 -24.06 2.86 -22.57 2.81 C-21.91 2.8 -21.25 2.78 -20.56 2.77 C-18.5 2.5 -18.5 2.5 -16.13 1.51 C-11.01 -0.45 -5.43 0.05 0 0 Z " fill="#31AFCB" transform="translate(287.5,28.5)"/>
<path d="M0 0 C3.11 2.8 3.22 5.69 3.44 9.75 C3.07 17.9 0.06 23.56 -4.38 30.25 C-5.02 31.24 -5.67 32.24 -6.34 33.26 C-10.4 39.15 -14.78 43.82 -20.38 48.25 C-21.18 48.97 -21.98 49.69 -22.81 50.44 C-29.4 55.1 -35.56 57.09 -43.69 56.84 C-46.79 56.16 -47.71 55.47 -49.56 52.94 C-50.8 50.72 -51.57 48.68 -52.38 46.25 C-53.04 45.92 -53.69 45.59 -54.38 45.25 C-54.38 39.31 -54.38 33.37 -54.38 27.25 C-53.71 27.25 -53.06 27.25 -52.38 27.25 C-52.3 26.8 -52.3 26.8 -51.94 24.5 C-51.51 22.04 -51.02 19.66 -50.38 17.25 C-49.71 17.25 -49.06 17.25 -48.38 17.25 C-48.31 16.71 -48.25 16.18 -48.19 15.62 C-47.02 12.21 -44.7 9.98 -42.38 7.25 C-42.05 6.26 -41.71 5.27 -41.38 4.25 C-38.81 2.81 -38.81 2.81 -35.38 1.25 C-34.04 0.54 -32.71 -0.17 -31.38 -0.88 C-21.46 -5.76 -9.61 -4.98 0 0 Z " fill="#FDF401" transform="translate(466.375,280.75)"/>
<path d="M0 0 C3.21 1.81 4.75 4.85 6.6 7.93 C6.8 8.24 6.8 8.24 7.8 9.83 C9.35 12.33 10.83 14.81 12.09 17.46 C13.42 19.94 15.59 20.74 17.98 22.11 C19.98 25.11 19.98 25.11 19.98 28.11 C18 28.11 16.02 28.11 13.98 28.11 C13.33 34.11 14.94 37.53 17.98 42.68 C19.19 45.64 18.91 47.1 17.98 50.11 C17.81 50.44 17.81 50.44 16.98 52.11 C13.13 50.81 10.91 49.34 8.16 46.36 C4.41 42.44 0.41 39.23 -4.02 36.11 C-8.1 37.83 -11.26 40.65 -14.65 43.43 C-28.14 54.2 -28.14 54.2 -36.27 54.61 C-40.99 53.98 -44.14 52.55 -47.9 49.68 C-49.02 48.11 -49.02 48.11 -49.02 44.11 C-47.15 42.4 -47.15 42.4 -44.59 40.74 C-43.68 40.13 -42.77 39.53 -41.83 38.91 C-40.07 37.78 -38.3 36.66 -36.53 35.54 C-30.18 31.46 -25.78 28.04 -23.52 20.55 C-22.19 16.19 -20.6 14.08 -17.02 11.11 C-16.24 10.46 -15.46 9.81 -14.65 9.14 C-3.74 0.21 -3.74 0.21 0 0 Z " fill="#33B0CB" transform="translate(450.0234375,137.88671875)"/>
<path d="M0 0 C4.16 2.34 5.54 4.56 7 9 C8.16 21.18 5.5 31.64 -1 42 C-3.63 44.41 -4.79 44.96 -8.38 45.62 C-12.79 44.86 -14.11 43.62 -16.78 40.16 C-18.78 36.63 -19.48 32.99 -20 29 C-20.66 29 -21.32 29 -22 29 C-22.08 26.42 -22.14 23.83 -22.19 21.25 C-22.21 20.52 -22.24 19.79 -22.26 19.04 C-22.32 14.65 -22.03 12.22 -19 9 C-18.88 8.34 -18.75 7.68 -18.62 7 C-17.66 3.92 -15.59 2.79 -13 1 C-8.66 -0.45 -4.54 -0.52 0 0 Z " fill="#FDF501" transform="translate(391,284)"/>
<path d="M0 0 C15.26 -1.07 15.26 -1.07 19.25 1.38 C20.68 3.18 21.84 5.01 23 7 C28.45 12.45 34.98 14.92 42 18 C42 25.92 42 33.84 42 42 C32 42 32 42 29.74 40.13 C29.27 39.28 28.8 38.44 28.31 37.56 C27.76 36.65 27.2 35.74 26.63 34.8 C26.09 33.88 25.55 32.95 25 32 C20.73 25.43 16.74 21.96 9.73 18.46 C4.52 15.67 -0.12 12.5 -2.12 6.81 C-2 3.9 -1.36 2.51 0 0 Z " fill="#34B0CC" transform="translate(190,52)"/>
<path d="M0 0 C4.92 4.59 6.82 9.04 7.23 15.84 C7.23 17.21 7.21 18.57 7.19 19.94 C7.19 20.61 7.19 21.29 7.19 21.99 C7.15 26.43 6.71 30.64 6 35 C5.01 35 4.02 35 3 35 C2.67 35.82 2.67 35.82 1 40 C-2.39 40.41 -4.97 40.66 -7.92 38.77 C-9.69 37.24 -11.36 35.67 -13 34 C-13.54 33.55 -14.08 33.09 -14.63 32.62 C-18.75 27.74 -18.51 18.12 -18 12 C-16.36 6.81 -14.58 3.97 -10 1 C-6.33 -0.22 -3.86 -0.47 0 0 Z " fill="#FDF402" transform="translate(352,300)"/>
<path d="M0 0 C3.38 2.66 5.62 5.81 6.36 10.09 C6.38 12 6.38 12 6 15 C6.66 15 7.32 15 8 15 C8.08 17.6 8.14 20.21 8.19 22.81 C8.21 23.55 8.24 24.29 8.26 25.05 C8.34 30.47 8.34 30.47 6.75 32.96 C3.93 34.63 1.72 34.78 -1.52 34.68 C-7.79 32.97 -11.78 26.96 -15.06 21.69 C-16.54 15.89 -17.66 9.5 -15 3.89 C-11.1 -0.76 -5.72 -1.69 0 0 Z " fill="#FBF203" transform="translate(322,325)"/>
<path d="M0 0 C3.11 2.8 3.22 5.69 3.44 9.75 C3.07 17.9 0.06 23.56 -4.38 30.25 C-5.02 31.24 -5.67 32.24 -6.34 33.26 C-10.4 39.15 -14.78 43.82 -20.38 48.25 C-21.18 48.97 -21.98 49.69 -22.81 50.44 C-30.5 55.88 -37.04 56.82 -46.38 56.25 C-46.7 55.59 -47.04 54.93 -47.38 54.25 C-46.56 54.26 -45.74 54.27 -44.89 54.29 C-44.35 54.29 -44.35 54.29 -41.62 54.31 C-40.56 54.32 -39.49 54.34 -38.39 54.35 C-33.69 54.2 -33.69 54.2 -31.38 53.25 C-31.05 52.26 -30.71 51.27 -30.38 50.25 C-28.73 49.22 -27.05 48.23 -25.38 47.25 C-16.06 40.87 -10.06 32.88 -4.38 23.25 C-3.92 22.54 -3.46 21.83 -2.99 21.1 C0.43 15.53 1.48 10.77 1.62 4.25 C1.03 3.96 0.43 3.67 -0.19 3.38 C-2.38 2.25 -2.38 2.25 -5.38 0.25 C-5.38 -0.41 -5.38 -1.07 -5.38 -1.75 C-8.69 -1.61 -12 -1.46 -15.31 -1.31 C-15.79 -1.29 -15.79 -1.29 -18.18 -1.19 C-19.08 -1.15 -19.98 -1.11 -20.9 -1.07 C-21.32 -1.05 -21.32 -1.05 -23.43 -0.96 C-25.38 -0.75 -25.38 -0.75 -26.38 0.25 C-28.37 0.29 -30.38 0.29 -32.38 0.25 C-22.76 -6.16 -9.82 -5.09 0 0 Z " fill="#AAA42B" transform="translate(466.375,280.75)"/>
<path d="M0 0 C4.92 4.59 6.82 9.04 7.23 15.84 C7.23 17.21 7.21 18.57 7.19 19.94 C7.19 20.61 7.19 21.29 7.19 21.99 C7.15 26.43 6.71 30.64 6 35 C5.01 35 4.02 35 3 35 C2.67 35.82 2.67 35.82 1 40 C-2.39 40.41 -4.97 40.66 -7.92 38.77 C-9.69 37.24 -11.36 35.67 -13 34 C-13.54 33.55 -14.08 33.09 -14.63 32.62 C-18.75 27.74 -18.51 18.12 -18 12 C-16.36 6.81 -14.58 3.97 -10 1 C-6.33 -0.22 -3.86 -0.47 0 0 Z M-16 9 C-17.21 16.11 -16.57 23.27 -14 30 C-12.68 30.33 -11.36 30.66 -10 31 C-9.96 31.31 -9.96 31.31 -9.75 32.88 C-9 35 -9 35 -7.31 36.25 C-4.46 37.18 -1.98 37.14 1 37 C1.33 35.35 1.66 33.7 2 32 C2.66 32 3.32 32 4 32 C4.12 28.13 4.19 24.25 4.25 20.38 C4.28 19.28 4.32 18.19 4.35 17.06 C4.48 6.6 4.48 6.6 0 2 C-6.94 0.5 -12.24 2.86 -16 9 Z " fill="#C7C023" transform="translate(352,300)"/>
<path d="M0 0 C0.66 0.33 1.32 0.66 2 1 C-8.82 10.6 -8.82 10.6 -12.96 11.36 C-16.4 12.44 -17.96 15.33 -20.12 18.09 C-22.3 20.3 -24.11 20.91 -27 22 C-31.84 25.15 -36.33 28.33 -37.79 34.12 C-38 41.79 -38 41.79 -35.15 45.25 C-32.61 47.32 -29.98 48.65 -27 50 C-27 50.66 -27 51.32 -27 52 C-23.7 52 -20.4 52 -17 52 C-17 52.33 -17 52.66 -17 53 C-22.93 53.59 -27.58 53.9 -32.5 50.19 C-33.7 49.16 -34.87 48.1 -36 47 C-36.57 46.5 -37.13 46 -37.72 45.49 C-39 44 -39 44 -39 41 C-39.99 41 -40.98 41 -42 41 C-42.67 36.41 -42.94 33.55 -40.49 29.53 C-34.78 22.87 -27.87 17.95 -20.63 13.1 C-19.17 12.11 -17.72 11.11 -16.28 10.11 C-13.32 8.08 -10.68 6.26 -7.32 4.97 C-5 4 -5 4 -4 2 C-2.06 0.81 -2.06 0.81 0 0 Z " fill="#C9C223" transform="translate(415,398)"/>
<path d="M0 0 C0.85 -0.01 1.7 -0.01 2.57 -0.02 C4.37 -0.03 6.17 -0.03 7.97 -0.04 C10.71 -0.05 13.45 -0.08 16.19 -0.11 C17.94 -0.12 19.69 -0.12 21.44 -0.12 C22.25 -0.14 23.07 -0.15 23.9 -0.16 C29.22 -0.14 32.87 0.8 37.62 3.2 C34.86 4.58 33.35 3.88 30.34 3.28 C23.53 2.07 16.95 1.94 10.05 2.02 C8.91 2.02 7.77 2.02 6.6 2.02 C-0.45 2.05 -7.38 2.44 -14.38 3.2 C-14.38 3.86 -14.38 4.52 -14.38 5.2 C-15.59 5.53 -16.79 5.86 -18.03 6.19 C-19.61 6.63 -21.18 7.07 -22.76 7.52 C-23.55 7.73 -24.35 7.94 -25.16 8.16 C-25.92 8.38 -26.69 8.59 -27.47 8.82 C-28.17 9.01 -28.87 9.2 -29.6 9.4 C-31.38 10.2 -31.38 10.2 -33.38 13.2 C-35.52 14.05 -35.52 14.05 -38.07 14.83 C-43.3 16.79 -45.58 19.39 -48.73 23.89 C-52.73 29.49 -58.05 33.91 -63.38 38.2 C-62.97 33.34 -60.93 31.41 -57.38 28.2 C-55.03 26.02 -54.44 25.36 -53.38 22.2 C-49.92 19.26 -46.13 16.76 -42.38 14.2 C-41.59 13.64 -40.81 13.07 -39.99 12.49 C-32.72 7.62 -24.83 5.98 -16.38 4.2 C-16.38 3.54 -16.38 2.88 -16.38 2.2 C-15.25 2.06 -14.11 1.91 -12.95 1.77 C-1.82 0.01 -1.82 0.01 0 0 Z " fill="#8A8633" transform="translate(388.3828125,343.796875)"/>
<path d="M0 0 C0 0.66 0 1.32 0 2 C0.62 2.27 1.24 2.54 1.88 2.81 C4 4 4 4 6 7 C7.5 16.78 1.71 24.69 -3.68 32.25 C-6.44 35.9 -9.58 38.97 -13 42 C-13.92 42.97 -14.84 43.95 -15.75 44.94 C-17.95 46.95 -19.08 47.68 -22 48 C-22 48.66 -22 49.32 -22 50 C-23.32 49.67 -24.64 49.34 -26 49 C-25.2 48.73 -24.39 48.46 -23.56 48.19 C-23.14 47.99 -23.14 47.99 -21 47 C-20.67 46.01 -20.34 45.02 -20 44 C-18.36 42.64 -18.36 42.64 -16.31 41.25 C-12.18 38.26 -9.11 35.01 -6 31 C-5.77 30.72 -5.77 30.72 -4.59 29.28 C-1.27 25.02 -0.02 21.3 1 16 C1.66 16 2.32 16 3 16 C3 12.37 3 8.74 3 5 C2.18 4.83 2.18 4.83 -2 4 C-2 3.34 -2 2.68 -2 2 C-6.12 2.33 -6.12 2.33 -27 4 C-27 3.34 -27 2.68 -27 2 C-19.66 -2.59 -8.16 -1.67 0 0 Z " fill="#B7B128" transform="translate(439,423)"/>
<path d="M0 0 C3.24 3.24 3.16 6.24 3.19 10.62 C3.05 20.9 0.52 29.21 -5 38 C-7.63 40.41 -8.79 40.96 -12.38 41.62 C-16.79 40.86 -18.11 39.62 -20.78 36.16 C-22.78 32.63 -23.48 28.99 -24 25 C-24.66 25 -25.32 25 -26 25 C-26.11 22.42 -26.19 19.84 -26.25 17.25 C-26.28 16.52 -26.32 15.79 -26.35 15.04 C-26.42 11.33 -26.34 9.43 -23.98 6.48 C-23.33 5.99 -22.67 5.5 -22 5 C-21.98 5.67 -21.96 6.34 -21.94 7.03 C-21.84 10.08 -21.73 13.14 -21.62 16.19 C-21.59 17.24 -21.56 18.3 -21.53 19.38 C-21.49 20.41 -21.45 21.43 -21.41 22.48 C-21.38 23.42 -21.35 24.36 -21.32 25.32 C-20.98 28.18 -20.1 30.36 -19 33 C-19 33.99 -19 34.98 -19 36 C-18.34 36 -17.68 36 -17 36 C-16.67 36.66 -16.34 37.32 -16 38 C-13.08 38.29 -10.85 38.5 -8 38 C-5.97 35.86 -5.16 34.61 -4 32 C-3.66 31.3 -3.32 30.59 -2.96 29.87 C0.01 23.21 0.5 17.6 0.25 10.38 C0.23 9.37 0.21 8.37 0.2 7.33 C0.15 4.89 0.08 2.44 0 0 Z " fill="#DBD41C" transform="translate(395,288)"/>
<path d="M0 0 C3.38 2.66 5.62 5.81 6.36 10.09 C6.38 12 6.38 12 6 15 C6.66 15 7.32 15 8 15 C8.08 17.6 8.14 20.21 8.19 22.81 C8.21 23.55 8.24 24.29 8.26 25.05 C8.34 30.47 8.34 30.47 6.75 32.96 C3.93 34.63 1.72 34.78 -1.52 34.68 C-7.79 32.97 -11.78 26.96 -15.06 21.69 C-16.54 15.89 -17.66 9.5 -15 3.89 C-11.1 -0.76 -5.72 -1.69 0 0 Z M-13 5 C-14.59 9.78 -14.59 14.74 -13.31 19.62 C-10.12 25.41 -7.03 29.86 -1 33 C1.69 33.44 1.69 33.44 4 33 C6.28 31.31 6.93 30.41 7.4 27.58 C7.35 22.19 6.97 17.8 4.79 12.85 C4 11 4 11 3 7.19 C1.5 2.42 1.5 2.42 -1 1 C-6.54 0.38 -9.55 0.17 -13 5 Z " fill="#A9A32D" transform="translate(322,325)"/>
<path d="M0 0 C4.91 4.53 5.87 6.35 6.19 12.88 C6.14 17.33 4.99 21.02 3 25 C2.34 25 1.68 25 1 25 C0.98 25.7 0.95 26.39 0.93 27.11 C-0.45 31.42 -3.38 33.44 -6.81 36.25 C-7.44 36.79 -8.07 37.33 -8.72 37.89 C-11.8 40.48 -13.98 42.23 -18 43 C-18 42.34 -18 41.68 -18 41 C-16.35 39.97 -14.68 38.97 -13 38 C-6.18 32.61 -0.82 27.38 2 19 C2.27 15.88 2.27 15.88 2.25 12.56 C2.26 11.47 2.26 10.38 2.27 9.25 C1.99 5.88 1.2 3.15 0 0 Z " fill="#C6C023" transform="translate(435,355)"/>
<path d="M0 0 C1.14 -0.01 2.28 -0.02 3.45 -0.02 C13.02 -0 23.19 0.13 31.56 5.25 C29.56 6.25 29.56 6.25 26.94 5.38 C25.82 5 24.71 4.63 23.56 4.25 C16.57 3.1 9.64 3.06 2.56 3.06 C1.37 3.06 0.18 3.06 -1.05 3.06 C-9.99 3.11 -18.62 3.74 -27.44 5.25 C-26.45 4.92 -25.46 4.59 -24.44 4.25 C-24.44 3.59 -24.44 2.93 -24.44 2.25 C-16.23 0.43 -8.39 -0.06 0 0 Z " fill="#E0D819" transform="translate(398.4375,344.75)"/>
<path d="M0 0 C0.66 0.33 1.32 0.66 2 1 C0.59 2.63 -0.83 4.26 -2.25 5.88 C-3.04 6.78 -3.83 7.68 -4.64 8.62 C-6.78 10.77 -8.31 11.76 -11 13 C-11.62 15 -11.62 15 -12 17 C-12.66 17.66 -13.32 18.32 -14 19 C-14.61 21.02 -15.14 23.07 -15.62 25.12 C-15.76 25.67 -15.76 25.67 -16.41 28.45 C-16.61 29.29 -16.8 30.13 -17 31 C-17.66 31 -18.32 31 -19 31 C-19 35.62 -19 40.24 -19 45 C-19.33 45 -19.66 45 -20 45 C-20 39.06 -20 33.12 -20 27 C-19.34 27 -18.68 27 -18 27 C-17.93 26.55 -17.93 26.55 -17.56 24.25 C-17.14 21.79 -16.65 19.41 -16 17 C-15.34 17 -14.68 17 -14 17 C-13.94 16.46 -13.88 15.93 -13.81 15.38 C-12.64 11.96 -10.32 9.73 -8 7 C-7.67 6.01 -7.34 5.02 -7 4 C-5.03 2.93 -3.03 1.93 -1 1 C-0.67 0.67 -0.34 0.34 0 0 Z " fill="#C6BF24" transform="translate(432,281)"/>
<path d="M0 0 C0.59 0.21 1.18 0.41 1.79 0.62 C-0.21 2.62 -0.21 2.62 -2.5 3.51 C-7.73 5.67 -11.79 9.14 -15.21 13.62 C-16.26 17.8 -16.35 21.46 -15.21 25.62 C-12.35 29.1 -9.28 30.77 -5.21 32.62 C-5.21 33.28 -5.21 33.94 -5.21 34.62 C-1.91 34.62 1.39 34.62 4.79 34.62 C4.79 34.95 4.79 35.28 4.79 35.62 C-1.14 36.21 -5.79 36.53 -10.71 32.81 C-11.9 31.78 -13.07 30.72 -14.21 29.62 C-14.75 29.11 -15.29 28.6 -15.85 28.07 C-18.59 25.15 -19.18 22.23 -19.33 18.31 C-19.31 17.87 -19.31 17.87 -19.21 15.62 C-18.55 15.62 -17.89 15.62 -17.21 15.62 C-17.11 15.04 -17.01 14.45 -16.9 13.84 C-15.26 8.62 -5.61 -0.95 0 0 Z " fill="#9F9A2F" transform="translate(393.20703125,415.375)"/>
<path d="M0 0 C7.38 0.76 7.38 0.76 10.69 2.03 C14.97 3.29 18.88 3.26 23.31 3.19 C23.72 3.19 23.72 3.19 25.81 3.19 C31.86 3.14 31.86 3.14 33 2 C34.51 1.77 36.04 1.59 37.56 1.44 C38.39 1.35 39.22 1.27 40.07 1.18 C40.39 1.15 40.39 1.15 42 1 C41 3 41 3 38.7 3.85 C28.23 6.54 18.65 6.42 8 5 C8 4.34 8 3.68 8 3 C7.24 3.06 6.47 3.12 5.69 3.19 C3 3 3 3 1.19 1.5 C0.99 1.25 0.99 1.25 0 0 Z " fill="#938E32" transform="translate(371,472)"/>
<path d="M0 0 C0.6 0.2 1.21 0.4 1.83 0.61 C0.11 2.53 -1.62 4.45 -3.36 6.36 C-3.84 6.9 -4.32 7.44 -4.82 7.99 C-7.73 11.2 -10.71 13.97 -14.17 16.61 C-15.19 17.59 -16.19 18.58 -17.17 19.61 C-16.75 14.74 -14.71 12.82 -11.17 9.61 C-8.82 7.43 -8.22 6.77 -7.17 3.61 C-2.92 -0.53 -2.92 -0.53 0 0 Z " fill="#D8D119" transform="translate(342.16796875,362.390625)"/>
<path d="M0 0 C0.82 2.85 1.1 5.31 1.03 8.27 C1.02 9.07 1 9.88 0.99 10.71 C0.96 12.39 0.92 14.06 0.87 15.74 C0.82 19.82 0.98 23.41 2.07 27.36 C2.96 30.83 3.01 31.79 2 35 C-1.99 27.51 -2.28 19.77 -2.12 11.44 C-2.12 10.52 -2.11 9.61 -2.1 8.67 C-2.07 6.45 -2.04 4.22 -2 2 C-1.34 2 -0.68 2 0 2 C0 1.34 0 0.68 0 0 Z " fill="#949031" transform="translate(321,389)"/>
<path d="M0 0 C0.43 -0.02 0.43 -0.02 2.59 -0.11 C5.82 0.44 6.98 1.86 9.06 4.31 C8.03 4.29 6.99 4.27 5.92 4.24 C4.55 4.22 3.18 4.21 1.81 4.19 C1.47 4.18 1.47 4.18 -0.25 4.14 C-5.18 4.09 -8.08 4.59 -11.69 7.94 C-12.1 8.39 -12.51 8.85 -12.94 9.31 C-12.94 7.99 -12.94 6.67 -12.94 5.31 C-8.85 1.45 -5.55 0.16 0 0 Z " fill="#C5BE23" transform="translate(385.9375,283.6875)"/>
<path d="M0 0 C1.5 1.06 1.5 1.06 3 3 C3.19 6.69 3.19 6.69 3 10 C3.66 10 4.32 10 5 10 C5.08 12.6 5.14 15.21 5.19 17.81 C5.2 18.18 5.2 18.18 5.26 20.05 C5.34 25.48 5.34 25.48 3.71 27.98 C0.77 29.73 -1.69 29.41 -5 29 C-6.94 27 -6.94 27 -8 25 C-7.44 25.33 -6.89 25.66 -6.31 26 C-3.65 27.15 -1.88 27.3 1 27 C3.55 24.45 3.3 23.42 3.31 19.88 C3.26 16.13 2.91 13.15 1.5 9.69 C0.04 6.09 -0.29 3.82 0 0 Z " fill="#CCC522" transform="translate(325,330)"/>
<path d="M0 0 C0 0.33 0 0.66 0 1 C-0.52 1.02 -0.52 1.02 -3.12 1.12 C-8.2 2.27 -9.55 4.22 -13 8 C-13.66 8 -14.32 8 -15 8 C-14.67 13.28 -14.34 18.56 -14 24 C-16 23 -16 23 -16.62 21.44 C-17.65 14.77 -17.33 9.97 -14 4 C-9.87 -0.74 -5.87 -0.46 0 0 Z " fill="#D2CB1F" transform="translate(351,301)"/>
<path d="M0 0 C2.38 2.12 2.38 2.12 4 4 C3.67 4.66 3.34 5.32 3 6 C1.29 4.72 -0.37 3.38 -2 2 C-2 1.34 -2 0.68 -2 0 C-5.31 0.14 -8.63 0.29 -11.94 0.44 C-12.41 0.46 -12.41 0.46 -14.8 0.56 C-15.7 0.6 -16.6 0.64 -17.53 0.68 C-17.94 0.7 -17.94 0.7 -20.05 0.79 C-22 1 -22 1 -23 2 C-25 2.04 -27 2.04 -29 2 C-21.25 -3.17 -8.4 -4.2 0 0 Z " fill="#D4CC20" transform="translate(463,279)"/>
<path d="M0 0 C-0.6 0.16 -0.6 0.16 -3.65 0.99 C-5.22 1.43 -6.8 1.87 -8.38 2.31 C-9.17 2.53 -9.96 2.74 -10.78 2.96 C-11.54 3.17 -12.3 3.39 -13.09 3.61 C-13.79 3.81 -14.49 4 -15.21 4.2 C-17 5 -17 5 -19 8 C-21.53 9.42 -21.53 9.42 -24.5 10.75 C-25.48 11.2 -26.46 11.65 -27.47 12.11 C-28.3 12.4 -29.14 12.7 -30 13 C-30.66 12.67 -31.32 12.34 -32 12 C-25.86 7.32 -20.42 4.08 -13 2 C-10.68 1.16 -8.36 0.31 -6.04 -0.55 C-3.67 -1.07 -2.3 -0.65 0 0 Z " fill="#9E992F" transform="translate(374,349)"/>
<path d="M0 0 C0.33 0 0.66 0 1 0 C1.04 2 1.04 4 1 6 C0.67 6.33 0.34 6.66 0 7 C-1.2 13.14 -1.12 19.2 -1.06 25.44 C-1.06 26.46 -1.05 27.47 -1.05 28.52 C-1.04 31.01 -1.02 33.51 -1 36 C-1.33 36 -1.66 36 -2 36 C-3.03 30.88 -3.19 25.95 -3.19 20.75 C-3.19 19.91 -3.19 19.07 -3.19 18.2 C-3.05 3.05 -3.05 3.05 0 0 Z " fill="#D8D11D" transform="translate(324,382)"/>
<path d="M0 0 C3.04 2.38 3.93 3.53 4.5 7.43 C4.3 20.36 4.3 20.36 1 26 C-0.26 23.48 0.3 21.97 0.74 19.27 C1.48 12.85 1.45 6.3 0 0 Z " fill="#827E35" transform="translate(396,288)"/>
<path d="M0 0 C0 0.33 0 0.66 0 1 C-1.19 1.05 -2.39 1.1 -3.62 1.15 C-19.3 1.86 -19.3 1.86 -27 4 C-27 3.34 -27 2.68 -27 2 C-19.66 -2.59 -8.16 -1.67 0 0 Z " fill="#908B32" transform="translate(439,423)"/>
<path d="M0 0 C0.81 -0.02 1.62 -0.03 2.46 -0.05 C5.89 -0.05 8.45 0.04 11.61 1.45 C13.71 4.15 13.46 6.13 13.31 9.5 C13.28 10.59 13.24 11.67 13.2 12.79 C13.18 13.21 13.18 13.21 13.06 15.31 C12.73 15.31 12.4 15.31 12.06 15.31 C12.06 11.68 12.06 8.05 12.06 4.31 C11.24 4.15 11.24 4.15 7.06 3.31 C7.06 2.65 7.06 1.99 7.06 1.31 C3.93 1.48 3.93 1.48 -11.94 2.31 C-7.88 -0.39 -4.76 -0.02 0 0 Z " fill="#D8D01E" transform="translate(429.9375,423.6875)"/>
<path d="M0 0 C0.59 0.2 1.19 0.41 1.8 0.62 C-0.2 2.62 -0.2 2.62 -2.5 3.49 C-7.64 5.64 -11.66 9.38 -15.2 13.62 C-16.3 16.91 -16.31 19.1 -16.2 22.62 C-16.53 22.62 -16.86 22.62 -17.2 22.62 C-17.87 18.12 -18.3 14.24 -15.67 10.35 C-13.61 8.28 -11.49 6.43 -9.2 4.62 C-8.56 4.08 -7.92 3.54 -7.25 2.98 C-2.86 -0.49 -2.86 -0.49 0 0 Z " fill="#797636" transform="translate(393.203125,415.37890625)"/>
<path d="M0 0 C0.33 0.17 0.33 0.17 2 1 C2.06 1.32 2.06 1.32 2.38 2.94 C2.48 3.28 2.48 3.28 3 5 C3.31 5.15 3.31 5.15 4.88 5.94 C7.72 7.36 8.44 9.28 10 12 C13.44 14.29 14.99 14.18 19 14 C18.67 14.66 18.34 15.32 18 16 C14.61 16.41 12.03 16.66 9.08 14.77 C7.31 13.24 5.64 11.67 4 10 C3.45 9.52 2.9 9.03 2.34 8.53 C0.16 6.04 0.3 3.19 0 0 Z " fill="#9B962F" transform="translate(335,324)"/>
<path d="M0 0 C0.33 0.66 0.66 1.32 1 2 C0.67 2.99 0.34 3.98 0 5 C-0.08 6.41 -0.11 7.82 -0.1 9.23 C-0.09 10.03 -0.09 10.84 -0.09 11.66 C-0.08 12.5 -0.07 13.33 -0.06 14.19 C-0.06 15.03 -0.05 15.88 -0.05 16.75 C-0.04 18.83 -0.02 20.92 0 23 C-0.33 22.01 -0.66 21.02 -1 20 C-1.66 20 -2.32 20 -3 20 C-3.08 17.42 -3.14 14.83 -3.19 12.25 C-3.21 11.52 -3.24 10.79 -3.26 10.04 C-3.31 6.66 -3.25 4.42 -1.49 1.48 C-1.24 1.24 -1.24 1.24 0 0 Z " fill="#928D32" transform="translate(372,293)"/>
<path d="M0 0 C0.66 0.33 1.32 0.66 2 1 C0.57 2.63 -0.87 4.25 -2.31 5.88 C-2.71 6.33 -2.71 6.33 -4.74 8.62 C-7 11 -7 11 -10 13 C-9.45 9.67 -8.95 6.79 -7 4 C-3.94 2.31 -3.94 2.31 -1 1 C-0.67 0.67 -0.34 0.34 0 0 Z " fill="#EAE111" transform="translate(432,281)"/>
<path d="M0 0 C0.75 0.01 1.5 0.02 2.27 0.03 C4.12 0.05 5.97 0.09 7.81 0.12 C7.81 0.45 7.81 0.78 7.81 1.12 C6.85 1.08 5.88 1.04 4.88 0.99 C-5.62 1.01 -5.62 1.01 -10.41 4.42 C-12.83 6.89 -15.07 9.38 -17.19 12.12 C-17.19 8.6 -16.64 8.11 -14.38 5.56 C-14.11 5.26 -14.11 5.26 -12.79 3.75 C-8.79 -0.3 -5.34 -0.12 0 0 Z " fill="#5BC0D8" transform="translate(260.1875,31.875)"/>
<path d="M0 0 C0 5.19 -1.62 8.6 -5.2 12.23 C-7.43 14.21 -9.68 16.13 -12 18 C-12.66 17.67 -13.32 17.34 -14 17 C-13.49 16.53 -12.98 16.05 -12.46 15.57 C-7.49 10.79 -3.59 5.88 0 0 Z " fill="#777436" transform="translate(439,448)"/>
<path d="M0 0 C0.66 0.33 1.32 0.66 2 1 C-0.31 4.3 -2.62 7.6 -5 11 C-5.66 9.68 -6.32 8.36 -7 7 C-4.69 4.69 -2.38 2.38 0 0 Z " fill="#96DCED" transform="translate(69,82)"/>
<path d="M0 0 C1.07 3.46 1.1 6.64 1.06 10.25 C1.05 11.33 1.04 12.41 1.04 13.52 C1.02 14.34 1.01 15.16 1 16 C-1.8 12.85 -2.35 10.93 -2.19 6.75 C-2.16 5.86 -2.13 4.97 -2.11 4.05 C-2.07 3.37 -2.04 2.7 -2 2 C-1.34 2 -0.68 2 0 2 C0 1.34 0 0.68 0 0 Z " fill="#6A6738" transform="translate(334,308)"/>
<path d="M0 0 C0.66 0.33 1.32 0.66 2 1 C0.78 2.32 -0.45 3.63 -1.69 4.94 C-2.37 5.67 -3.06 6.4 -3.76 7.15 C-6.24 9.19 -7.85 9.65 -11 10 C-8.33 6.34 -5.95 4.18 -2 2 C-1.34 1.34 -0.68 0.68 0 0 Z " fill="#7A7736" transform="translate(425,392)"/>
<path d="M0 0 C0.66 0.33 1.32 0.66 2 1 C2.08 3.23 2.14 5.46 2.19 7.69 C2.22 8.93 2.26 10.17 2.29 11.45 C1.98 15.19 1.18 17.01 -1 20 C-1.33 19.34 -1.66 18.68 -2 18 C-1.69 17.22 -1.38 16.43 -1.06 15.62 C0.46 10.42 0.16 5.38 0 0 Z " fill="#9A9531" transform="translate(467,283)"/>
<path d="M0 0 C0.66 0.33 1.32 0.66 2 1 C-1.63 4.96 -5.26 8.92 -9 13 C-9 10 -9 10 -7.56 8.5 C-7.05 8 -6.53 7.51 -6 7 C-5.67 6.01 -5.34 5.02 -5 4 C-3.38 2.61 -1.71 1.27 0 0 Z " fill="#B0AA2B" transform="translate(340,362)"/>
<path d="M0 0 C1.5 1.31 1.5 1.31 3 3 C3 3.99 3 4.98 3 6 C3.66 6 4.32 6 5 6 C5.33 6.5 5.33 6.5 7 9 C10.12 9.69 10.12 9.69 13 10 C13 10.33 13 10.66 13 11 C9.88 11.44 9.88 11.44 6 11 C3.48 9.02 1.56 6.8 0 4 C0 2.68 0 1.36 0 0 Z " fill="#BBB528" transform="translate(373,318)"/>
<path d="M0 0 C2.31 2.17 4.05 4.39 5.75 7.06 C6.2 7.75 6.65 8.45 7.11 9.16 C7.4 9.77 7.7 10.37 8 11 C7.67 11.66 7.34 12.32 7 13 C2.56 9.48 1.48 5.25 0 0 Z " fill="#949031" transform="translate(326,428)"/>
<path d="M0 0 C6.04 -0.71 6.04 -0.71 8.61 1.2 C10 2.75 10 2.75 12 6 C11.62 8.2 11.62 8.2 11 10 C10.71 9.43 10.42 8.87 10.12 8.29 C6.73 2.22 6.73 2.22 2.69 1 C1.8 1 0.91 1 0 1 C0 0.67 0 0.34 0 0 Z " fill="#B1AB2B" transform="translate(345,300)"/>
<path d="M0 0 C4.17 0.52 6.25 1.71 9.31 4.56 C10.01 5.2 10.71 5.84 11.43 6.5 C11.95 7 12.46 7.49 13 8 C12.67 8.66 12.34 9.32 12 10 C11.42 9.38 10.85 8.76 10.25 8.12 C8.18 6.17 6.52 5.22 4 4 C3.67 3.34 3.34 2.68 3 2 C2.01 1.34 1.02 0.68 0 0 Z " fill="#848034" transform="translate(426,348)"/>
<path d="M0 0 C2.66 1.33 2.98 2.69 4.19 5.38 C4.55 6.17 4.92 6.96 5.29 7.77 C6 10 6 10 5 13 C2.03 10.55 1.44 8.55 0.81 4.81 C0.65 3.91 0.5 3.01 0.33 2.08 C0.22 1.39 0.11 0.71 0 0 Z " fill="#D2CB20" transform="translate(323,418)"/>
<path d="M0 0 C4.97 0.51 9.29 1.23 14 3 C10.16 4.38 6.93 3.86 3 3 C1.06 1.44 1.06 1.44 0 0 Z " fill="#A7A12D" transform="translate(371,472)"/>
<path d="M0 0 C0.3 0.1 0.3 0.1 1.81 0.62 C-0.46 2.89 -2.2 3.51 -5.19 4.62 C-6.12 5 -7.04 5.37 -8 5.75 C-8.72 6.04 -9.44 6.33 -10.19 6.62 C-3.2 -0.55 -3.2 -0.55 0 0 Z " fill="#706D37" transform="translate(393.1875,415.375)"/>
<path d="M0 0 C5.66 0.37 10.01 1.06 15 4 C12.04 5.48 10.1 4.48 6.94 3.69 C5.85 3.42 4.77 3.16 3.65 2.89 C1 2 1 2 0 0 Z " fill="#CFC822" transform="translate(415,346)"/>
<path d="M0 0 C3.02 1.51 3.6 4.02 5 7 C5.33 7.66 5.66 8.32 6 9 C1.12 7.12 1.12 7.12 0 6 C-0.04 4 -0.04 2 0 0 Z " fill="#8A8533" transform="translate(413,326)"/>
<path d="M0 0 C-7.29 4.57 -7.29 4.57 -12 4 C-8.15 0.87 -4.95 -1.65 0 0 Z " fill="#DDD51C" transform="translate(418,470)"/>
<path d="M0 0 C0.45 0.04 0.45 0.04 2.75 0.25 C2.75 0.91 2.75 1.57 2.75 2.25 C-0.55 2.91 -3.85 3.57 -7.25 4.25 C-4.84 1.28 -3.9 0.3 0 0 Z " fill="#6D6A37" transform="translate(347.25,297.75)"/>
<path d="M0 0 C0.66 0.33 1.32 0.66 2 1 C-0.31 3.31 -2.62 5.62 -5 8 C-5 4.86 -4.65 3.6 -3 1 C-2.01 0.67 -1.02 0.34 0 0 Z " fill="#C4BD25" transform="translate(428,284)"/>
<path d="M0 0 C0.66 0 1.32 0 2 0 C0.71 2.88 -0.66 4.87 -3 7 C-3.66 6.67 -4.32 6.34 -5 6 C-3.38 3.96 -1.71 1.96 0 0 Z " fill="#8AD5E9" transform="translate(310,72)"/>
</svg>
